P3
# CREATOR: GIMP PNM Filter Version 1.1
80 80
255
4
7
2
4
7
2
4
7
2
4
7
2
4
7
2
4
7
2
4
7
2
4
7
2
4
7
2
4
7
2
4
7
2
4
7
2
4
7
2
4
7
2
4
7
2
4
7
2
4
7
2
4
7
2
4
7
2
4
7
2
4
7
2
4
7
2
4
7
2
4
7
2
4
7
2
4
7
2
4
7
2
4
7
2
4
7
2
4
7
2
4
7
2
4
7
2
4
7
2
4
7
2
4
7
2
4
7
2
4
7
2
4
7
2
8
11
7
8
11
7
8
11
7
4
7
2
4
7
2
4
7
2
4
7
2
4
7
2
4
7
2
4
7
2
4
7
2
4
7
2
4
7
2
4
7
2
4
7
2
4
7
2
4
7
2
4
7
2
4
7
2
4
7
2
4
7
2
4
7
2
4
7
2
4
7
2
4
7
2
4
7
2
4
7
2
4
7
2
4
7
2
4
7
2
4
7
2
4
7
2
4
7
2
4
7
2
4
7
2
4
7
2
4
7
2
4
7
2
4
7
2
4
7
2
4
7
2
4
7
2
4
7
2
4
7
2
4
7
2
4
7
2
4
7
2
4
7
2
4
7
2
4
7
2
4
7
2
4
7
2
4
7
2
4
7
2
4
7
2
4
7
2
4
7
2
4
7
2
4
7
2
4
7
2
4
7
2
4
7
2
4
7
2
4
7
2
4
7
2
4
7
2
4
7
2
4
7
2
4
7
2
4
7
2
4
7
2
4
7
2
4
7
2
4
7
2
4
7
2
4
7
2
8
11
7
12
15
11
21
22
20
25
27
24
29
31
28
33
35
32
29
31
28
29
31
28
25
27
24
17
19
16
12
15
11
8
11
7
4
7
2
4
7
2
4
7
2
4
7
2
4
7
2
4
7
2
4
7
2
4
7
2
4
7
2
4
7
2
4
7
2
4
7
2
4
7
2
4
7
2
4
7
2
4
7
2
4
7
2
4
7
2
4
7
2
4
7
2
4
7
2
4
7
2
4
7
2
4
7
2
4
7
2
4
7
2
4
7
2
4
7
2
4
7
2
4
7
2
4
7
2
4
7
2
4
7
2
4
7
2
4
7
2
4
7
2
4
7
2
4
7
2
4
7
2
0
1
4
0
1
4
4
7
2
4
7
2
4
7
2
4
7
2
4
7
2
4
7
2
4
7
2
4
7
2
4
7
2
4
7
2
4
7
2
4
7
2
4
7
2
4
7
2
4
7
2
4
7
2
4
7
2
4
7
2
4
7
2
4
7
2
4
7
2
4
7
2
4
7
2
4
7
2
4
7
2
4
7
2
12
15
11
25
27
24
41
43
40
53
55
52
65
66
64
77
79
76
77
79
76
77
79
76
73
74
72
65
66
64
53
55
52
41
43
40
25
27
24
17
19
16
8
11
7
4
7
2
4
7
2
4
7
2
4
7
2
4
7
2
4
7
2
4
7
2
4
7
2
4
7
2
4
7
2
4
7
2
4
7
2
4
7
2
4
7
2
4
7
2
4
7
2
4
7
2
4
7
2
4
7
2
4
7
2
4
7
2
4
7
2
4
7
2
4
7
2
4
7
2
4
7
2
4
7
2
4
7
2
4
7
2
4
7
2
4
7
2
4
7
2
4
7
2
4
7
2
4
7
2
4
7
2
0
1
4
4
7
2
4
7
2
4
7
2
4
7
2
4
7
2
4
7
2
4
7
2
4
7
2
4
7
2
4
7
2
4
7
2
4
7
2
4
7
2
4
7
2
4
7
2
4
7
2
4
7
2
4
7
2
4
7
2
4
7
2
4
7
2
4
7
2
4
7
2
4
7
2
4
7
2
4
7
2
8
11
7
21
22
20
41
43
40
65
66
64
85
86
84
65
66
64
37
39
36
37
39
36
21
22
20
25
27
24
33
35
32
53
55
52
65
66
64
85
86
84
69
71
68
45
46
44
25
27
24
12
15
11
4
7
2
4
7
2
4
7
2
4
7
2
4
7
2
4
7
2
4
7
2
4
7
2
4
7
2
4
7
2
4
7
2
4
7
2
4
7
2
4
7
2
4
7
2
4
7
2
4
7
2
4
7
2
4
7
2
4
7
2
4
7
2
4
7
2
4
7
2
4
7
2
4
7
2
4
7
2
4
7
2
4
7
2
4
7
2
4
7
2
4
7
2
4
7
2
4
7
2
4
7
2
4
7
2
0
1
4
0
1
4
0
1
4
4
7
2
4
7
2
4
7
2
4
7
2
4
7
2
4
7
2
4
7
2
4
7
2
4
7
2
4
7
2
4
7
2
4
7
2
4
7
2
4
7
2
4
7
2
4
7
2
4
7
2
4
7
2
4
7
2
4
7
2
4
7
2
4
7
2
4
7
2
8
11
7
25
27
24
49
51
48
81
83
80
57
58
56
4
7
2
5
2
7
5
2
7
5
2
7
5
2
7
5
2
7
5
2
7
5
2
7
5
2
7
4
7
2
53
55
52
85
86
84
65
66
64
37
39
36
17
19
16
4
7
2
4
7
2
4
7
2
4
7
2
4
7
2
4
7
2
4
7
2
4
7
2
4
7
2
4
7
2
4
7
2
4
7
2
4
7
2
4
7
2
4
7
2
4
7
2
4
7
2
4
7
2
4
7
2
4
7
2
4
7
2
4
7
2
4
7
2
4
7
2
4
7
2
4
7
2
4
7
2
4
7
2
4
7
2
4
7
2
4
7
2
4
7
2
4
7
2
4
7
2
4
7
2
4
7
2
4
7
2
4
7
2
4
7
2
4
7
2
4
7
2
4
7
2
4
7
2
4
7
2
4
7
2
4
7
2
4
7
2
4
7
2
4
7
2
4
7
2
4
7
2
4
7
2
4
7
2
4
7
2
4
7
2
4
7
2
4
7
2
4
7
2
4
7
2
4
7
2
21
22
20
49
51
48
77
79
76
33
35
32
5
2
7
5
2
7
5
2
7
5
2
7
5
2
7
5
2
7
5
2
7
5
2
7
5
2
7
5
2
7
5
2
7
5
2
7
4
7
2
69
71
68
77
79
76
45
46
44
21
22
20
4
7
2
4
7
2
4
7
2
4
7
2
4
7
2
4
7
2
4
7
2
4
7
2
4
7
2
4
7
2
4
7
2
4
7
2
4
7
2
4
7
2
4
7
2
4
7
2
4
7
2
4
7
2
4
7
2
4
7
2
4
7
2
4
7
2
4
7
2
4
7
2
4
7
2
4
7
2
4
7
2
4
7
2
4
7
2
4
7
2
4
7
2
4
7
2
4
7
2
0
1
4
0
1
4
0
1
4
4
7
2
4
7
2
4
7
2
4
7
2
4
7
2
4
7
2
4
7
2
4
7
2
4
7
2
4
7
2
4
7
2
4
7
2
4
7
2
4
7
2
4
7
2
4
7
2
4
7
2
4
7
2
4
7
2
4
7
2
4
7
2
4
7
2
17
19
16
41
43
40
81
83
80
25
27
24
5
2
7
5
2
7
5
2
7
5
2
7
5
2
7
5
2
7
5
2
7
5
2
7
5
2
7
5
2
7
12
15
11
45
46
44
33
35
32
4
7
2
5
2
7
41
43
40
77
79
76
41
43
40
17
19
16
4
7
2
4
7
2
4
7
2
4
7
2
4
7
2
4
7
2
4
7
2
4
7
2
4
7
2
4
7
2
4
7
2
4
7
2
4
7
2
4
7
2
4
7
2
4
7
2
4
7
2
4
7
2
4
7
2
4
7
2
4
7
2
4
7
2
4
7
2
4
7
2
4
7
2
4
7
2
4
7
2
4
7
2
4
7
2
4
7
2
4
7
2
4
7
2
0
1
4
4
7
2
0
1
4
4
7
2
4
7
2
4
7
2
4
7
2
4
7
2
4
7
2
4
7
2
4
7
2
4
7
2
4
7
2
4
7
2
4
7
2
4
7
2
4
7
2
4
7
2
4
7
2
4
7
2
4
7
2
4
7
2
4
7
2
4
7
2
8
11
7
29
31
28
65
66
64
57
58
56
5
2
7
5
2
7
5
2
7
5
2
7
5
2
7
5
2
7
5
2
7
5
2
7
5
2
7
5
2
7
5
2
7
25
27
24
85
86
84
100
101
99
45
46
44
8
11
7
5
2
7
57
58
56
69
71
68
33
35
32
8
11
7
4
7
2
4
7
2
4
7
2
4
7
2
4
7
2
4
7
2
4
7
2
4
7
2
4
7
2
4
7
2
4
7
2
4
7
2
4
7
2
4
7
2
4
7
2
4
7
2
4
7
2
4
7
2
4
7
2
4
7
2
4
7
2
4
7
2
4
7
2
4
7
2
4
7
2
4
7
2
4
7
2
4
7
2
4
7
2
4
7
2
4
7
2
0
1
4
0
1
4
0
1
4
4
7
2
4
7
2
4
7
2
4
7
2
4
7
2
4
7
2
4
7
2
4
7
2
4
7
2
4
7
2
4
7
2
4
7
2
4
7
2
4
7
2
4
7
2
4
7
2
4
7
2
4
7
2
4
7
2
4
7
2
4
7
2
12
15
11
41
43
40
85
86
84
8
11
7
5
2
7
5
2
7
5
2
7
5
2
7
5
2
7
5
2
7
5
2
7
5
2
7
5
2
7
5
2
7
5
2
7
29
31
28
93
95
92
93
95
92
57
58
56
25
27
24
5
2
7
4
7
2
77
79
76
53
55
52
21
22
20
4
7
2
4
7
2
4
7
2
4
7
2
4
7
2
4
7
2
4
7
2
4
7
2
4
7
2
4
7
2
4
7
2
4
7
2
4
7
2
4
7
2
4
7
2
4
7
2
4
7
2
4
7
2
4
7
2
4
7
2
4
7
2
4
7
2
4
7
2
4
7
2
4
7
2
4
7
2
4
7
2
4
7
2
4
7
2
4
7
2
4
7
2
4
7
2
4
7
2
4
7
2
4
7
2
4
7
2
4
7
2
4
7
2
4
7
2
4
7
2
4
7
2
4
7
2
4
7
2
4
7
2
4
7
2
4
7
2
4
7
2
4
7
2
4
7
2
4
7
2
4
7
2
4
7
2
4
7
2
4
7
2
4
7
2
21
22
20
61
63
60
61
63
60
5
2
7
5
2
7
5
2
7
5
2
7
5
2
7
5
2
7
5
2
7
5
2
7
5
2
7
5
2
7
5
2
7
5
2
7
25
27
24
53
55
52
37
39
36
17
19
16
8
11
7
5
2
7
5
2
7
33
35
32
81
83
80
37
39
36
12
15
11
4
7
2
4
7
2
4
7
2
4
7
2
4
7
2
4
7
2
4
7
2
4
7
2
4
7
2
4
7
2
4
7
2
4
7
2
4
7
2
4
7
2
4
7
2
4
7
2
4
7
2
4
7
2
4
7
2
4
7
2
4
7
2
4
7
2
4
7
2
4
7
2
4
7
2
4
7
2
4
7
2
4
7
2
4
7
2
4
7
2
4
7
2
0
1
4
0
1
4
4
7
2
4
7
2
4
7
2
4
7
2
4
7
2
4
7
2
4
7
2
4
7
2
4
7
2
4
7
2
4
7
2
4
7
2
4
7
2
4
7
2
4
7
2
4
7
2
4
7
2
4
7
2
4
7
2
4
7
2
4
7
2
29
31
28
77
79
76
29
31
28
5
2
7
5
2
7
5
2
7
5
2
7
5
2
7
5
2
7
5
2
7
5
2
7
5
2
7
5
2
7
5
2
7
5
2
7
8
11
7
8
11
7
5
2
7
5
2
7
5
2
7
5
2
7
5
2
7
5
2
7
77
79
76
49
51
48
17
19
16
4
7
2
4
7
2
4
7
2
4
7
2
4
7
2
4
7
2
4
7
2
4
7
2
4
7
2
4
7
2
4
7
2
4
7
2
4
7
2
4
7
2
4
7
2
4
7
2
4
7
2
4
7
2
4
7
2
4
7
2
4
7
2
4
7
2
4
7
2
4
7
2
4
7
2
4
7
2
4
7
2
4
7
2
4
7
2
4
7
2
0
1
4
4
7
2
4
7
2
4
7
2
4
7
2
4
7
2
4
7
2
4
7
2
4
7
2
4
7
2
4
7
2
4
7
2
4
7
2
4
7
2
4
7
2
4
7
2
4
7
2
4
7
2
4
7
2
4
7
2
4
7
2
4
7
2
4
7
2
8
11
7
37
39
36
85
86
84
12
15
11
5
2
7
5
2
7
5
2
7
5
2
7
5
2
7
5
2
7
5
2
7
5
2
7
5
2
7
5
2
7
5
2
7
5
2
7
5
2
7
5
2
7
5
2
7
5
2
7
5
2
7
5
2
7
5
2
7
5
2
7
53
55
52
65
66
64
25
27
24
4
7
2
4
7
2
4
7
2
4
7
2
4
7
2
4
7
2
4
7
2
4
7
2
4
7
2
4
7
2
4
7
2
4
7
2
4
7
2
4
7
2
4
7
2
4
7
2
4
7
2
4
7
2
4
7
2
4
7
2
4
7
2
4
7
2
4
7
2
4
7
2
4
7
2
4
7
2
4
7
2
4
7
2
4
7
2
4
7
2
4
7
2
0
1
4
0
1
4
4
7
2
4
7
2
4
7
2
4
7
2
4
7
2
4
7
2
4
7
2
4
7
2
4
7
2
4
7
2
4
7
2
4
7
2
4
7
2
4
7
2
4
7
2
4
7
2
4
7
2
4
7
2
4
7
2
4
7
2
12
15
11
41
43
40
81
83
80
5
2
7
5
2
7
5
2
7
4
7
2
8
11
7
5
2
7
5
2
7
5
2
7
5
2
7
5
2
7
5
2
7
5
2
7
5
2
7
4
7
2
12
15
11
8
11
7
5
2
7
5
2
7
5
2
7
5
2
7
5
2
7
17
19
16
81
83
80
33
35
32
8
11
7
4
7
2
4
7
2
4
7
2
4
7
2
4
7
2
4
7
2
4
7
2
4
7
2
4
7
2
4
7
2
4
7
2
4
7
2
4
7
2
4
7
2
4
7
2
4
7
2
4
7
2
4
7
2
4
7
2
4
7
2
4
7
2
4
7
2
4
7
2
4
7
2
4
7
2
4
7
2
4
7
2
4
7
2
4
7
2
0
1
4
4
7
2
4
7
2
4
7
2
4
7
2
4
7
2
4
7
2
4
7
2
4
7
2
4
7
2
4
7
2
4
7
2
4
7
2
4
7
2
4
7
2
4
7
2
4
7
2
4
7
2
4
7
2
4
7
2
4
7
2
4
7
2
4
7
2
12
15
11
45
46
44
85
86
84
5
2
7
5
2
7
4
7
2
4
7
2
21
22
20
33
35
32
4
7
2
5
2
7
5
2
7
5
2
7
5
2
7
5
2
7
17
19
16
33
35
32
8
11
7
49
51
48
21
22
20
5
2
7
5
2
7
5
2
7
5
2
7
8
11
7
85
86
84
41
43
40
12
15
11
4
7
2
4
7
2
4
7
2
4
7
2
4
7
2
4
7
2
4
7
2
4
7
2
4
7
2
4
7
2
4
7
2
4
7
2
4
7
2
4
7
2
4
7
2
4
7
2
4
7
2
4
7
2
4
7
2
4
7
2
4
7
2
4
7
2
4
7
2
4
7
2
4
7
2
4
7
2
4
7
2
4
7
2
4
7
2
0
1
4
0
1
4
0
1
4
4
7
2
4
7
2
4
7
2
4
7
2
4
7
2
4
7
2
4
7
2
4
7
2
4
7
2
4
7
2
4
7
2
4
7
2
4
7
2
4
7
2
4
7
2
4
7
2
4
7
2
4
7
2
4
7
2
4
7
2
12
15
11
45
46
44
85
86
84
5
2
7
5
2
7
37
39
36
115
117
114
93
95
92
21
22
20
21
22
20
5
2
7
5
2
7
5
2
7
12
15
11
85
86
84
136
138
135
162
164
161
156
158
155
37
39
36
25
27
24
4
7
2
5
2
7
5
2
7
5
2
7
5
2
7
85
86
84
45
46
44
12
15
11
4
7
2
4
7
2
4
7
2
4
7
2
4
7
2
4
7
2
4
7
2
4
7
2
4
7
2
4
7
2
4
7
2
4
7
2
4
7
2
4
7
2
4
7
2
4
7
2
4
7
2
4
7
2
4
7
2
4
7
2
4
7
2
4
7
2
4
7
2
4
7
2
4
7
2
4
7
2
4
7
2
4
7
2
4
7
2
4
7
2
4
7
2
4
7
2
4
7
2
4
7
2
4
7
2
4
7
2
4
7
2
4
7
2
4
7
2
4
7
2
4
7
2
4
7
2
4
7
2
4
7
2
4
7
2
4
7
2
4
7
2
4
7
2
4
7
2
4
7
2
4
7
2
4
7
2
12
15
11
45
46
44
85
86
84
5
2
7
12
15
11
136
138
135
195
197
194
195
197
194
115
117
114
8
11
7
5
2
7
5
2
7
4
7
2
99
98
91
187
190
186
207
209
206
215
217
214
215
217
214
136
138
135
12
15
11
4
7
2
5
2
7
5
2
7
5
2
7
5
2
7
85
86
84
49
51
48
17
19
16
4
7
2
4
7
2
4
7
2
4
7
2
4
7
2
4
7
2
4
7
2
4
7
2
4
7
2
4
7
2
4
7
2
4
7
2
4
7
2
4
7
2
4
7
2
4
7
2
4
7
2
4
7
2
4
7
2
4
7
2
4
7
2
4
7
2
4
7
2
4
7
2
4
7
2
4
7
2
4
7
2
0
1
4
4
7
2
0
1
4
0
1
4
0
1
4
4
7
2
4
7
2
4
7
2
4
7
2
4
7
2
4
7
2
4
7
2
4
7
2
4
7
2
4
7
2
4
7
2
4
7
2
4
7
2
4
7
2
4
7
2
4
7
2
4
7
2
4
7
2
4
7
2
4
7
2
12
15
11
45
46
44
85
86
84
5
2
7
53
55
52
215
217
214
195
197
194
222
224
221
244
246
242
57
58
56
5
2
7
5
2
7
29
31
28
207
209
206
251
254
250
170
172
169
124
126
123
222
224
221
231
233
229
73
74
72
5
2
7
5
2
7
5
2
7
5
2
7
5
2
7
69
71
68
57
58
56
21
22
20
4
7
2
4
7
2
4
7
2
4
7
2
4
7
2
4
7
2
4
7
2
4
7
2
4
7
2
4
7
2
4
7
2
4
7
2
4
7
2
4
7
2
4
7
2
4
7
2
4
7
2
4
7
2
4
7
2
4
7
2
4
7
2
4
7
2
4
7
2
4
7
2
4
7
2
4
7
2
4
7
2
4
7
2
4
7
2
4
7
2
4
7
2
4
7
2
4
7
2
4
7
2
4
7
2
4
7
2
4
7
2
4
7
2
4
7
2
4
7
2
4
7
2
4
7
2
4
7
2
4
7
2
4
7
2
4
7
2
4
7
2
4
7
2
4
7
2
4
7
2
4
7
2
4
7
2
12
15
11
45
46
44
81
83
80
5
2
7
105
107
104
170
172
169
25
27
24
85
86
84
222
224
221
124
126
123
8
11
7
12
15
11
45
46
44
231
233
229
187
190
186
4
7
2
69
71
68
89
91
88
237
239
235
156
158
155
5
2
7
5
2
7
5
2
7
5
2
7
5
2
7
69
71
68
57
58
56
21
22
20
4
7
2
4
7
2
4
7
2
4
7
2
4
7
2
4
7
2
4
7
2
4
7
2
4
7
2
4
7
2
4
7
2
4
7
2
4
7
2
4
7
2
4
7
2
4
7
2
4
7
2
4
7
2
4
7
2
4
7
2
4
7
2
4
7
2
4
7
2
4
7
2
4
7
2
4
7
2
4
7
2
0
1
4
4
7
2
0
1
4
0
1
4
0
1
4
4
7
2
4
7
2
4
7
2
4
7
2
4
7
2
4
7
2
4
7
2
4
7
2
4
7
2
4
7
2
4
7
2
4
7
2
4
7
2
4
7
2
4
7
2
4
7
2
4
7
2
4
7
2
4
7
2
4
7
2
12
15
11
41
43
40
85
86
84
4
7
2
115
117
114
105
107
104
4
7
2
69
71
68
144
146
143
124
126
123
17
19
16
37
39
36
53
55
52
222
224
221
105
107
104
5
2
7
12
15
11
45
46
44
187
190
186
195
197
194
5
2
7
5
2
7
5
2
7
5
2
7
5
2
7
73
74
72
61
63
60
21
22
20
4
7
2
4
7
2
4
7
2
4
7
2
4
7
2
4
7
2
4
7
2
4
7
2
4
7
2
4
7
2
4
7
2
4
7
2
4
7
2
4
7
2
4
7
2
4
7
2
4
7
2
4
7
2
4
7
2
4
7
2
4
7
2
4
7
2
4
7
2
4
7
2
4
7
2
4
7
2
4
7
2
0
1
4
4
7
2
0
1
4
4
7
2
0
1
4
4
7
2
4
7
2
4
7
2
4
7
2
4
7
2
4
7
2
4
7
2
4
7
2
4
7
2
4
7
2
4
7
2
4
7
2
4
7
2
4
7
2
4
7
2
4
7
2
4
7
2
4
7
2
4
7
2
4
7
2
12
15
11
41
43
40
93
95
92
12
15
11
100
101
99
124
126
123
5
2
7
17
19
16
115
117
114
119
98
43
121
92
8
121
92
8
102
77
9
162
164
161
105
107
104
5
2
7
5
2
7
5
2
7
195
197
194
195
197
194
4
7
2
5
2
7
5
2
7
5
2
7
5
2
7
73
74
72
61
63
60
21
22
20
4
7
2
4
7
2
4
7
2
4
7
2
4
7
2
4
7
2
4
7
2
4
7
2
4
7
2
4
7
2
4
7
2
4
7
2
4
7
2
4
7
2
4
7
2
4
7
2
4
7
2
4
7
2
4
7
2
4
7
2
4
7
2
4
7
2
4
7
2
4
7
2
4
7
2
4
7
2
4
7
2
0
1
4
0
1
4
0
1
4
4
7
2
0
1
4
4
7
2
4
7
2
4
7
2
4
7
2
4
7
2
4
7
2
4
7
2
4
7
2
4
7
2
4
7
2
4
7
2
4
7
2
4
7
2
4
7
2
4
7
2
4
7
2
4
7
2
4
7
2
4
7
2
4
7
2
8
11
7
37
39
36
89
91
88
12
15
11
57
58
56
207
209
206
25
27
24
50
34
5
154
116
7
227
168
5
236
187
15
223
176
13
185
144
6
214
174
0
176
145
57
36
27
10
5
2
7
69
71
68
244
246
242
136
138
135
5
2
7
5
2
7
5
2
7
5
2
7
5
2
7
69
71
68
65
66
64
25
27
24
4
7
2
4
7
2
4
7
2
4
7
2
4
7
2
4
7
2
4
7
2
4
7
2
4
7
2
4
7
2
4
7
2
4
7
2
4
7
2
4
7
2
4
7
2
4
7
2
4
7
2
4
7
2
4
7
2
4
7
2
4
7
2
4
7
2
4
7
2
4
7
2
4
7
2
4
7
2
4
7
2
4
7
2
4
7
2
4
7
2
4
7
2
4
7
2
4
7
2
4
7
2
4
7
2
4
7
2
4
7
2
4
7
2
4
7
2
4
7
2
4
7
2
4
7
2
4
7
2
4
7
2
4
7
2
4
7
2
4
7
2
4
7
2
4
7
2
4
7
2
4
7
2
4
7
2
8
11
7
37
39
36
85
86
84
12
15
11
8
11
7
195
197
194
186
162
110
192
134
0
223
176
13
238
183
11
240
190
0
232
195
0
236
203
33
236
203
33
241
208
0
232
195
0
185
144
6
216
195
134
212
206
185
41
43
40
5
2
7
5
2
7
5
2
7
5
2
7
5
2
7
49
51
48
73
74
72
29
31
28
4
7
2
4
7
2
4
7
2
4
7
2
4
7
2
4
7
2
4
7
2
4
7
2
4
7
2
4
7
2
4
7
2
4
7
2
4
7
2
4
7
2
4
7
2
4
7
2
4
7
2
4
7
2
4
7
2
4
7
2
4
7
2
4
7
2
4
7
2
4
7
2
4
7
2
4
7
2
4
7
2
4
7
2
4
7
2
4
7
2
4
7
2
4
7
2
4
7
2
4
7
2
4
7
2
4
7
2
4
7
2
4
7
2
4
7
2
4
7
2
4
7
2
4
7
2
4
7
2
4
7
2
4
7
2
4
7
2
4
7
2
4
7
2
4
7
2
4
7
2
4
7
2
4
7
2
8
11
7
33
35
32
85
86
84
12
15
11
5
2
7
121
87
24
192
134
0
219
162
15
238
183
11
236
187
15
232
195
0
241
208
0
246
215
52
246
215
52
245
218
37
244
216
15
241
208
0
241
208
0
229
186
0
121
87
24
5
2
7
5
2
7
5
2
7
5
2
7
5
2
7
49
51
48
81
83
80
33
35
32
8
11
7
4
7
2
4
7
2
4
7
2
4
7
2
4
7
2
4
7
2
4
7
2
4
7
2
4
7
2
4
7
2
4
7
2
4
7
2
4
7
2
4
7
2
4
7
2
4
7
2
4
7
2
4
7
2
4
7
2
4
7
2
4
7
2
4
7
2
4
7
2
4
7
2
4
7
2
4
7
2
4
7
2
4
7
2
4
7
2
4
7
2
4
7
2
4
7
2
4
7
2
4
7
2
4
7
2
4
7
2
4
7
2
4
7
2
4
7
2
4
7
2
4
7
2
4
7
2
4
7
2
4
7
2
4
7
2
4
7
2
4
7
2
4
7
2
4
7
2
4
7
2
4
7
2
8
11
7
33
35
32
81
83
80
29
31
28
61
43
8
179
124
0
205
145
2
228
174
0
238
183
11
240
190
0
239
201
14
241
208
0
248
217
71
245
218
37
244
216
15
244
216
15
244
216
15
229
186
0
214
174
0
185
144
6
4
7
2
5
2
7
5
2
7
5
2
7
5
2
7
25
27
24
93
95
92
41
43
40
12
15
11
4
7
2
4
7
2
4
7
2
4
7
2
4
7
2
4
7
2
4
7
2
4
7
2
4
7
2
4
7
2
4
7
2
4
7
2
4
7
2
4
7
2
4
7
2
4
7
2
4
7
2
4
7
2
4
7
2
4
7
2
4
7
2
4
7
2
4
7
2
4
7
2
4
7
2
4
7
2
4
7
2
4
7
2
4
7
2
4
7
2
4
7
2
4
7
2
4
7
2
4
7
2
4
7
2
4
7
2
4
7
2
4
7
2
4
7
2
4
7
2
4
7
2
4
7
2
4
7
2
4
7
2
4
7
2
4
7
2
4
7
2
4
7
2
4
7
2
4
7
2
4
7
2
8
11
7
29
31
28
77
79
76
49
51
48
104
68
4
192
134
0
215
158
4
238
177
2
236
187
15
232
195
0
241
208
0
246
215
52
245
218
37
244
216
15
244
216
15
241
208
0
192
150
12
199
145
0
215
158
4
154
116
7
5
2
7
5
2
7
5
2
7
5
2
7
5
2
7
4
7
2
89
91
88
53
55
52
17
19
16
4
7
2
4
7
2
4
7
2
4
7
2
4
7
2
4
7
2
4
7
2
4
7
2
4
7
2
4
7
2
4
7
2
4
7
2
4
7
2
4
7
2
4
7
2
4
7
2
4
7
2
4
7
2
4
7
2
4
7
2
4
7
2
4
7
2
4
7
2
4
7
2
4
7
2
4
7
2
4
7
2
4
7
2
4
7
2
4
7
2
4
7
2
4
7
2
4
7
2
4
7
2
4
7
2
4
7
2
4
7
2
4
7
2
4
7
2
4
7
2
4
7
2
4
7
2
4
7
2
4
7
2
4
7
2
4
7
2
4
7
2
4
7
2
4
7
2
4
7
2
4
7
2
8
11
7
29
31
28
77
79
76
45
46
44
21
22
20
138
89
3
212
161
5
238
183
11
240
190
0
239
201
14
241
208
0
244
216
15
244
216
15
241
208
0
204
165
4
185
134
13
211
150
14
215
158
4
211
150
14
102
77
9
5
2
7
4
7
2
53
55
52
12
15
11
5
2
7
5
2
7
61
63
60
73
74
72
29
31
28
8
11
7
4
7
2
4
7
2
4
7
2
4
7
2
4
7
2
4
7
2
4
7
2
4
7
2
4
7
2
4
7
2
4
7
2
4
7
2
4
7
2
4
7
2
4
7
2
4
7
2
4
7
2
4
7
2
4
7
2
4
7
2
4
7
2
4
7
2
4
7
2
4
7
2
4
7
2
4
7
2
4
7
2
4
7
2
4
7
2
4
7
2
4
7
2
4
7
2
4
7
2
4
7
2
4
7
2
4
7
2
4
7
2
4
7
2
4
7
2
4
7
2
4
7
2
4
7
2
4
7
2
4
7
2
4
7
2
4
7
2
4
7
2
4
7
2
4
7
2
4
7
2
8
11
7
33
35
32
77
79
76
49
51
48
4
7
2
89
67
32
139
101
13
185
144
6
229
186
0
236
203
33
232
195
0
214
174
0
185
144
6
169
121
6
192
134
0
211
150
14
215
153
0
203
150
36
186
162
110
99
98
91
5
2
7
5
2
7
77
79
76
115
117
114
57
58
56
5
2
7
21
22
20
89
91
88
45
46
44
17
19
16
4
7
2
4
7
2
4
7
2
4
7
2
4
7
2
4
7
2
4
7
2
4
7
2
4
7
2
4
7
2
4
7
2
4
7
2
4
7
2
4
7
2
4
7
2
4
7
2
4
7
2
4
7
2
4
7
2
4
7
2
4
7
2
4
7
2
4
7
2
4
7
2
4
7
2
4
7
2
4
7
2
4
7
2
4
7
2
4
7
2
4
7
2
4
7
2
4
7
2
4
7
2
4
7
2
4
7
2
4
7
2
4
7
2
4
7
2
4
7
2
4
7
2
4
7
2
4
7
2
4
7
2
4
7
2
4
7
2
4
7
2
4
7
2
4
7
2
4
7
2
8
11
7
37
39
36
85
86
84
49
51
48
4
7
2
124
126
123
174
154
114
158
106
1
169
121
6
192
150
12
185
144
6
196
138
8
199
145
0
205
145
2
205
145
2
196
138
8
186
162
110
195
197
194
195
197
194
170
172
169
12
15
11
5
2
7
21
22
20
115
117
114
115
117
114
21
22
20
5
2
7
73
74
72
69
71
68
29
31
28
8
11
7
4
7
2
4
7
2
4
7
2
4
7
2
4
7
2
4
7
2
4
7
2
4
7
2
4
7
2
4
7
2
4
7
2
4
7
2
4
7
2
4
7
2
4
7
2
4
7
2
4
7
2
4
7
2
4
7
2
4
7
2
4
7
2
4
7
2
4
7
2
4
7
2
4
7
2
4
7
2
4
7
2
4
7
2
4
7
2
4
7
2
4
7
2
4
7
2
4
7
2
4
7
2
4
7
2
4
7
2
4
7
2
4
7
2
4
7
2
4
7
2
4
7
2
4
7
2
4
7
2
4
7
2
4
7
2
4
7
2
4
7
2
4
7
2
4
7
2
17
19
16
49
51
48
100
101
99
25
27
24
8
11
7
136
138
135
187
190
186
174
154
114
158
106
1
196
138
8
199
145
0
196
138
8
192
134
0
179
124
0
189
145
37
191
178
141
187
190
186
200
202
199
222
224
221
215
217
214
65
66
64
5
2
7
5
2
7
49
51
48
61
63
60
4
7
2
5
2
7
8
11
7
89
91
88
49
51
48
17
19
16
4
7
2
4
7
2
4
7
2
4
7
2
4
7
2
4
7
2
4
7
2
4
7
2
4
7
2
4
7
2
4
7
2
4
7
2
4
7
2
4
7
2
4
7
2
4
7
2
4
7
2
4
7
2
4
7
2
4
7
2
4
7
2
4
7
2
4
7
2
4
7
2
4
7
2
4
7
2
4
7
2
4
7
2
4
7
2
4
7
2
4
7
2
4
7
2
4
7
2
4
7
2
4
7
2
4
7
2
4
7
2
4
7
2
4
7
2
4
7
2
4
7
2
4
7
2
4
7
2
4
7
2
4
7
2
4
7
2
4
7
2
4
7
2
8
11
7
33
35
32
73
74
72
73
74
72
5
2
7
4
7
2
144
146
143
195
197
194
187
190
186
179
166
148
153
122
56
158
106
1
158
106
1
170
123
41
174
154
114
187
190
186
187
190
186
207
209
206
244
246
242
251
254
250
251
254
250
180
182
179
4
7
2
5
2
7
5
2
7
5
2
7
5
2
7
5
2
7
5
2
7
61
63
60
73
74
72
33
35
32
12
15
11
4
7
2
4
7
2
4
7
2
4
7
2
4
7
2
4
7
2
4
7
2
4
7
2
4
7
2
4
7
2
4
7
2
4
7
2
4
7
2
4
7
2
4
7
2
4
7
2
4
7
2
4
7
2
4
7
2
4
7
2
4
7
2
4
7
2
4
7
2
4
7
2
4
7
2
4
7
2
4
7
2
4
7
2
4
7
2
4
7
2
4
7
2
4
7
2
4
7
2
4
7
2
4
7
2
4
7
2
4
7
2
4
7
2
4
7
2
4
7
2
4
7
2
4
7
2
4
7
2
4
7
2
4
7
2
4
7
2
8
11
7
21
22
20
53
55
52
93
95
92
17
19
16
5
2
7
45
46
44
231
233
229
222
224
221
187
190
186
187
190
186
187
190
186
187
190
186
187
190
186
187
190
186
187
190
186
195
197
194
215
217
214
244
246
242
251
254
250
251
254
250
251
254
250
251
254
250
81
83
80
5
2
7
5
2
7
5
2
7
5
2
7
5
2
7
5
2
7
12
15
11
85
86
84
53
55
52
21
22
20
4
7
2
4
7
2
4
7
2
4
7
2
4
7
2
4
7
2
4
7
2
4
7
2
4
7
2
4
7
2
4
7
2
4
7
2
4
7
2
4
7
2
4
7
2
4
7
2
4
7
2
4
7
2
4
7
2
4
7
2
4
7
2
4
7
2
4
7
2
4
7
2
4
7
2
4
7
2
4
7
2
4
7
2
4
7
2
4
7
2
4
7
2
4
7
2
4
7
2
4
7
2
4
7
2
4
7
2
4
7
2
4
7
2
4
7
2
4
7
2
4
7
2
4
7
2
4
7
2
4
7
2
4
7
2
4
7
2
17
19
16
45
46
44
89
91
88
45
46
44
17
19
16
4
7
2
180
182
179
251
254
250
244
246
242
207
209
206
187
190
186
187
190
186
187
190
186
187
190
186
187
190
186
207
209
206
231
233
229
249
251
248
251
254
250
251
254
250
251
254
250
251
254
250
251
254
250
200
202
199
12
15
11
5
2
7
5
2
7
5
2
7
5
2
7
5
2
7
5
2
7
41
43
40
85
86
84
41
43
40
17
19
16
4
7
2
4
7
2
4
7
2
4
7
2
4
7
2
4
7
2
4
7
2
4
7
2
4
7
2
4
7
2
4
7
2
4
7
2
4
7
2
4
7
2
4
7
2
4
7
2
4
7
2
4
7
2
4
7
2
4
7
2
4
7
2
4
7
2
4
7
2
4
7
2
4
7
2
4
7
2
4
7
2
4
7
2
4
7
2
4
7
2
4
7
2
4
7
2
4
7
2
4
7
2
4
7
2
4
7
2
4
7
2
4
7
2
4
7
2
4
7
2
4
7
2
4
7
2
4
7
2
4
7
2
12
15
11
37
39
36
73
74
72
65
66
64
5
2
7
4
7
2
89
91
88
249
251
248
251
254
250
251
254
250
237
239
235
195
197
194
187
190
186
187
190
186
195
197
194
222
224
221
244
246
242
251
254
250
251
254
250
251
254
250
251
254
250
251
254
250
251
254
250
251
254
250
251
254
250
81
83
80
5
2
7
5
2
7
5
2
7
5
2
7
5
2
7
5
2
7
5
2
7
77
79
76
69
71
68
33
35
32
12
15
11
4
7
2
4
7
2
4
7
2
4
7
2
4
7
2
4
7
2
4
7
2
4
7
2
4
7
2
4
7
2
4
7
2
4
7
2
4
7
2
4
7
2
4
7
2
4
7
2
4
7
2
4
7
2
4
7
2
4
7
2
4
7
2
4
7
2
4
7
2
4
7
2
4
7
2
4
7
2
4
7
2
4
7
2
4
7
2
4
7
2
4
7
2
4
7
2
4
7
2
4
7
2
4
7
2
4
7
2
4
7
2
4
7
2
4
7
2
4
7
2
4
7
2
4
7
2
12
15
11
33
35
32
65
66
64
77
79
76
4
7
2
5
2
7
17
19
16
215
217
214
251
254
250
251
254
250
251
254
250
251
254
250
244
246
242
222
224
221
231
233
229
244
246
242
251
254
250
251
254
250
251
254
250
251
254
250
251
254
250
251
254
250
251
254
250
251
254
250
251
254
250
251
254
250
180
182
179
5
2
7
5
2
7
5
2
7
5
2
7
5
2
7
5
2
7
5
2
7
17
19
16
89
91
88
61
63
60
29
31
28
8
11
7
4
7
2
4
7
2
4
7
2
4
7
2
4
7
2
4
7
2
4
7
2
4
7
2
4
7
2
4
7
2
4
7
2
4
7
2
4
7
2
4
7
2
4
7
2
4
7
2
4
7
2
4
7
2
4
7
2
4
7
2
4
7
2
4
7
2
4
7
2
4
7
2
4
7
2
4
7
2
4
7
2
4
7
2
4
7
2
4
7
2
4
7
2
4
7
2
4
7
2
4
7
2
4
7
2
4
7
2
4
7
2
4
7
2
4
7
2
4
7
2
8
11
7
25
27
24
57
58
56
89
91
88
17
19
16
5
2
7
5
2
7
105
107
104
251
254
250
251
254
250
251
254
250
251
254
250
251
254
250
251
254
250
249
251
248
251
254
250
251
254
250
251
254
250
251
254
250
251
254
250
251
254
250
251
254
250
251
254
250
251
254
250
251
254
250
251
254
250
251
254
250
231
233
229
17
19
16
5
2
7
5
2
7
5
2
7
5
2
7
5
2
7
5
2
7
5
2
7
17
19
16
93
95
92
53
55
52
25
27
24
8
11
7
4
7
2
4
7
2
4
7
2
4
7
2
4
7
2
4
7
2
4
7
2
4
7
2
4
7
2
4
7
2
4
7
2
4
7
2
4
7
2
4
7
2
4
7
2
4
7
2
4
7
2
4
7
2
4
7
2
4
7
2
4
7
2
4
7
2
4
7
2
4
7
2
4
7
2
4
7
2
4
7
2
4
7
2
4
7
2
4
7
2
4
7
2
4
7
2
4
7
2
4
7
2
4
7
2
4
7
2
4
7
2
4
7
2
4
7
2
21
22
20
49
51
48
89
91
88
25
27
24
5
2
7
5
2
7
12
15
11
195
197
194
249
251
248
251
254
250
251
254
250
251
254
250
251
254
250
251
254
250
251
254
250
251
254
250
251
254
250
251
254
250
251
254
250
251
254
250
251
254
250
251
254
250
251
254
250
251
254
250
251
254
250
251
254
250
249
251
248
244
246
242
53
55
52
5
2
7
5
2
7
5
2
7
5
2
7
5
2
7
5
2
7
5
2
7
5
2
7
37
39
36
85
86
84
49
51
48
21
22
20
4
7
2
4
7
2
4
7
2
4
7
2
4
7
2
4
7
2
4
7
2
4
7
2
4
7
2
4
7
2
4
7
2
4
7
2
4
7
2
4
7
2
4
7
2
4
7
2
4
7
2
4
7
2
4
7
2
4
7
2
4
7
2
4
7
2
4
7
2
4
7
2
4
7
2
4
7
2
4
7
2
4
7
2
4
7
2
4
7
2
4
7
2
4
7
2
4
7
2
4
7
2
4
7
2
4
7
2
4
7
2
4
7
2
12
15
11
37
39
36
81
83
80
33
35
32
5
2
7
5
2
7
5
2
7
41
43
40
195
197
194
244
246
242
251
254
250
251
254
250
251
254
250
251
254
250
249
251
248
244
246
242
244
246
242
249
251
248
251
254
250
251
254
250
251
254
250
251
254
250
251
254
250
251
254
250
249
251
248
244
246
242
237
239
235
222
224
221
231
233
229
100
101
99
4
7
2
5
2
7
5
2
7
5
2
7
5
2
7
5
2
7
5
2
7
5
2
7
5
2
7
37
39
36
81
83
80
41
43
40
12
15
11
4
7
2
4
7
2
4
7
2
4
7
2
4
7
2
4
7
2
4
7
2
4
7
2
4
7
2
4
7
2
4
7
2
4
7
2
4
7
2
4
7
2
4
7
2
4
7
2
4
7
2
4
7
2
4
7
2
4
7
2
4
7
2
4
7
2
4
7
2
4
7
2
4
7
2
4
7
2
4
7
2
4
7
2
4
7
2
4
7
2
4
7
2
4
7
2
4
7
2
4
7
2
4
7
2
4
7
2
8
11
7
25
27
24
61
63
60
65
66
64
5
2
7
5
2
7
5
2
7
4
7
2
69
71
68
170
172
169
207
209
206
231
233
229
244
246
242
249
251
248
249
251
248
237
239
235
222
224
221
231
233
229
237
239
235
249
251
248
249
251
248
249
251
248
244
246
242
231
233
229
215
217
214
207
209
206
200
202
199
200
202
199
195
197
194
200
202
199
180
182
179
17
19
16
5
2
7
5
2
7
5
2
7
5
2
7
5
2
7
5
2
7
5
2
7
5
2
7
5
2
7
61
63
60
65
66
64
29
31
28
8
11
7
4
7
2
4
7
2
4
7
2
4
7
2
4
7
2
4
7
2
4
7
2
4
7
2
4
7
2
4
7
2
4
7
2
4
7
2
4
7
2
4
7
2
4
7
2
4
7
2
4
7
2
4
7
2
4
7
2
4
7
2
4
7
2
4
7
2
4
7
2
4
7
2
4
7
2
4
7
2
4
7
2
4
7
2
4
7
2
4
7
2
4
7
2
4
7
2
4
7
2
4
7
2
4
7
2
12
15
11
41
43
40
81
83
80
17
19
16
5
2
7
5
2
7
5
2
7
8
11
7
93
95
92
180
182
179
215
217
214
244
246
242
249
251
248
251
254
250
251
254
250
251
254
250
250
243
240
247
233
230
242
227
225
242
227
225
247
233
230
250
243
240
251
254
250
244
246
242
237
239
235
222
224
221
207
209
206
200
202
199
195
197
194
195
197
194
207
209
206
156
158
155
4
7
2
12
15
11
49
51
48
12
15
11
5
2
7
5
2
7
5
2
7
5
2
7
5
2
7
4
7
2
85
86
84
45
46
44
17
19
16
4
7
2
4
7
2
4
7
2
4
7
2
4
7
2
4
7
2
4
7
2
4
7
2
4
7
2
4
7
2
4
7
2
4
7
2
4
7
2
4
7
2
4
7
2
4
7
2
4
7
2
4
7
2
4
7
2
4
7
2
4
7
2
4
7
2
4
7
2
4
7
2
4
7
2
4
7
2
4
7
2
4
7
2
4
7
2
4
7
2
4
7
2
4
7
2
4
7
2
4
7
2
4
7
2
21
22
20
53
55
52
69
71
68
5
2
7
5
2
7
8
11
7
5
2
7
21
22
20
162
164
161
231
233
229
249
251
248
251
254
250
251
254
250
250
243
240
232
204
199
219
154
146
216
120
113
207
94
85
207
94
85
207
94
85
208
97
94
216
120
113
219
154
146
232
204
199
250
243
240
251
254
250
251
254
250
244
246
242
231
233
229
207
209
206
195
197
194
222
224
221
93
95
92
5
2
7
4
7
2
37
39
36
29
31
28
5
2
7
5
2
7
5
2
7
5
2
7
5
2
7
61
63
60
65
66
64
25
27
24
8
11
7
4
7
2
4
7
2
4
7
2
4
7
2
4
7
2
4
7
2
4
7
2
4
7
2
4
7
2
4
7
2
4
7
2
4
7
2
4
7
2
4
7
2
4
7
2
4
7
2
4
7
2
4
7
2
4
7
2
4
7
2
4
7
2
4
7
2
4
7
2
4
7
2
4
7
2
4
7
2
4
7
2
4
7
2
4
7
2
4
7
2
4
7
2
4
7
2
4
7
2
8
11
7
29
31
28
73
74
72
49
51
48
5
2
7
25
27
24
25
27
24
5
2
7
105
107
104
237
239
235
251
254
250
251
254
250
251
254
250
233
188
175
219
154
146
207
94
85
203
86
68
202
77
59
202
77
59
201
70
56
201
70
56
202
77
59
202
77
59
205
80
65
208
97
94
216
137
132
233
188
175
251
254
250
251
254
250
251
254
250
244
246
242
215
217
214
200
202
199
207
209
206
12
15
11
5
2
7
5
2
7
29
31
28
21
22
20
5
2
7
5
2
7
5
2
7
5
2
7
17
19
16
85
86
84
41
43
40
12
15
11
4
7
2
4
7
2
4
7
2
4
7
2
4
7
2
4
7
2
4
7
2
4
7
2
4
7
2
4
7
2
4
7
2
4
7
2
4
7
2
4
7
2
4
7
2
4
7
2
4
7
2
4
7
2
4
7
2
4
7
2
4
7
2
4
7
2
4
7
2
4
7
2
4
7
2
4
7
2
4
7
2
4
7
2
4
7
2
4
7
2
4
7
2
4
7
2
4
7
2
12
15
11
41
43
40
89
91
88
21
22
20
5
2
7
41
43
40
5
2
7
17
19
16
215
217
214
251
254
250
251
254
250
251
254
250
211
123
106
216
137
132
203
86
68
203
86
68
202
77
59
199
67
48
199
67
48
199
67
48
200
60
46
199
67
48
199
67
48
201
70
56
202
77
59
207
81
74
215
127
128
211
123
106
251
254
250
251
254
250
251
254
250
249
251
248
222
224
221
215
217
214
100
101
99
5
2
7
12
15
11
17
19
16
37
39
36
8
11
7
5
2
7
5
2
7
5
2
7
5
2
7
77
79
76
57
58
56
21
22
20
4
7
2
4
7
2
4
7
2
4
7
2
4
7
2
4
7
2
4
7
2
4
7
2
4
7
2
4
7
2
4
7
2
4
7
2
4
7
2
4
7
2
4
7
2
4
7
2
4
7
2
4
7
2
4
7
2
4
7
2
4
7
2
4
7
2
4
7
2
4
7
2
4
7
2
4
7
2
4
7
2
4
7
2
4
7
2
4
7
2
4
7
2
4
7
2
4
7
2
17
19
16
53
55
52
81
83
80
5
2
7
25
27
24
21
22
20
5
2
7
124
126
123
251
254
250
251
254
250
251
254
250
207
95
79
216
137
132
203
86
68
203
86
68
203
86
68
205
80
65
202
77
59
199
67
48
199
67
48
199
67
48
199
67
48
200
60
46
200
60
46
199
67
48
201
70
56
201
77
64
216
137
132
207
81
74
251
254
250
251
254
250
251
254
250
249
251
248
237
239
235
195
197
194
4
7
2
37
39
36
57
58
56
25
27
24
37
39
36
5
2
7
5
2
7
5
2
7
5
2
7
45
46
44
77
79
76
29
31
28
8
11
7
4
7
2
4
7
2
4
7
2
4
7
2
4
7
2
4
7
2
4
7
2
4
7
2
4
7
2
4
7
2
4
7
2
4
7
2
4
7
2
4
7
2
4
7
2
4
7
2
4
7
2
4
7
2
4
7
2
4
7
2
4
7
2
4
7
2
4
7
2
4
7
2
4
7
2
4
7
2
4
7
2
4
7
2
4
7
2
4
7
2
4
7
2
8
11
7
29
31
28
73
74
72
57
58
56
5
2
7
41
43
40
5
2
7
21
22
20
231
233
229
251
254
250
251
254
250
228
166
154
209
87
88
203
86
68
203
86
68
203
86
68
207
103
89
207
95
79
202
77
59
199
67
48
198
66
41
200
60
46
200
60
46
198
66
41
200
60
46
200
60
46
199
67
48
201
70
56
207
81
74
208
97
94
223
155
141
251
254
250
251
254
250
251
254
250
251
254
250
244
246
242
45
46
44
37
39
36
41
43
40
12
15
11
37
39
36
12
15
11
5
2
7
5
2
7
5
2
7
4
7
2
85
86
84
45
46
44
12
15
11
4
7
2
4
7
2
4
7
2
4
7
2
4
7
2
4
7
2
4
7
2
4
7
2
4
7
2
4
7
2
4
7
2
4
7
2
4
7
2
4
7
2
4
7
2
4
7
2
4
7
2
4
7
2
4
7
2
4
7
2
4
7
2
4
7
2
4
7
2
4
7
2
4
7
2
4
7
2
4
7
2
4
7
2
4
7
2
4
7
2
4
7
2
12
15
11
41
43
40
89
91
88
17
19
16
17
19
16
25
27
24
5
2
7
115
117
114
251
254
250
251
254
250
251
254
250
192
32
24
207
103
89
205
80
65
203
86
68
207
95
79
207
103
89
207
95
79
202
77
59
199
67
48
199
67
48
199
67
48
198
66
41
200
60
46
200
60
46
200
60
46
200
60
46
201
70
56
201
77
64
207
94
85
192
32
24
249
251
248
251
254
250
251
254
250
251
254
250
251
254
250
93
95
92
4
7
2
5
2
7
5
2
7
8
11
7
33
35
32
5
2
7
5
2
7
5
2
7
5
2
7
73
74
72
57
58
56
21
22
20
4
7
2
4
7
2
4
7
2
4
7
2
4
7
2
4
7
2
4
7
2
4
7
2
4
7
2
4
7
2
4
7
2
4
7
2
4
7
2
4
7
2
4
7
2
4
7
2
4
7
2
4
7
2
4
7
2
4
7
2
4
7
2
4
7
2
4
7
2
4
7
2
4
7
2
4
7
2
4
7
2
4
7
2
4
7
2
4
7
2
8
11
7
25
27
24
65
66
64
81
83
80
5
2
7
37
39
36
4
7
2
12
15
11
207
209
206
251
254
250
251
254
250
223
147
138
200
60
40
201
77
64
202
77
59
202
77
59
203
86
68
203
86
68
201
77
64
199
67
48
199
67
48
200
60
46
200
60
40
200
60
40
200
60
46
200
60
46
200
60
46
200
60
46
200
60
46
201
70
56
201
77
64
200
60
40
216
137
132
251
254
250
251
254
250
251
254
250
251
254
250
144
146
143
5
2
7
5
2
7
5
2
7
5
2
7
45
46
44
5
2
7
5
2
7
5
2
7
5
2
7
41
43
40
73
74
72
29
31
28
8
11
7
4
7
2
4
7
2
4
7
2
4
7
2
4
7
2
4
7
2
4
7
2
4
7
2
4
7
2
4
7
2
4
7
2
4
7
2
4
7
2
4
7
2
4
7
2
4
7
2
4
7
2
4
7
2
4
7
2
4
7
2
4
7
2
4
7
2
4
7
2
4
7
2
4
7
2
4
7
2
4
7
2
4
7
2
4
7
2
12
15
11
41
43
40
89
91
88
25
27
24
4
7
2
41
43
40
5
2
7
73
74
72
249
251
248
251
254
250
251
254
250
200
60
46
199
30
45
199
45
48
201
77
64
207
95
79
213
129
103
218
144
117
213
120
100
199
51
43
191
39
37
218
144
117
221
155
126
221
155
126
221
155
126
218
144
117
191
39
37
199
51
43
203
72
64
203
72
64
199
45
48
199
30
45
200
60
46
251
254
250
251
254
250
251
254
250
251
254
250
180
182
179
5
2
7
5
2
7
5
2
7
5
2
7
45
46
44
5
2
7
5
2
7
5
2
7
5
2
7
8
11
7
85
86
84
37
39
36
8
11
7
4
7
2
4
7
2
4
7
2
4
7
2
4
7
2
4
7
2
4
7
2
4
7
2
4
7
2
4
7
2
4
7
2
4
7
2
4
7
2
4
7
2
4
7
2
4
7
2
4
7
2
4
7
2
4
7
2
4
7
2
4
7
2
4
7
2
4
7
2
4
7
2
4
7
2
4
7
2
4
7
2
4
7
2
8
11
7
25
27
24
65
66
64
81
83
80
5
2
7
21
22
20
17
19
16
5
2
7
144
146
143
251
254
250
251
254
250
250
243
240
197
39
34
251
254
250
255
250
248
255
250
248
255
250
248
250
243
240
247
233
230
251
254
250
215
105
101
223
147
138
255
250
248
243
225
213
247
233
230
247
233
230
250
243
240
233
188
175
207
94
85
251
254
250
255
250
248
251
254
250
251
254
250
203
72
64
247
233
230
251
254
250
251
254
250
251
254
250
207
209
206
5
2
7
5
2
7
5
2
7
5
2
7
37
39
36
5
2
7
5
2
7
5
2
7
5
2
7
4
7
2
85
86
84
45
46
44
12
15
11
4
7
2
4
7
2
4
7
2
4
7
2
4
7
2
4
7
2
4
7
2
4
7
2
4
7
2
4
7
2
4
7
2
4
7
2
4
7
2
4
7
2
4
7
2
4
7
2
4
7
2
4
7
2
4
7
2
4
7
2
4
7
2
4
7
2
4
7
2
4
7
2
4
7
2
4
7
2
4
7
2
4
7
2
17
19
16
45
46
44
85
86
84
17
19
16
5
2
7
33
35
32
8
11
7
4
7
2
207
209
206
251
254
250
251
254
250
235
206
191
207
81
74
219
154
146
194
21
30
216
114
111
232
175
163
194
21
30
194
21
30
235
206
191
216
114
111
232
175
163
227
180
166
194
21
30
197
26
38
197
26
38
197
26
38
203
90
58
216
114
111
237
201
182
194
21
30
194
21
30
194
21
30
197
39
34
235
206
191
251
254
250
251
254
250
251
254
250
222
224
221
4
7
2
5
2
7
5
2
7
4
7
2
29
31
28
5
2
7
5
2
7
5
2
7
5
2
7
5
2
7
81
83
80
53
55
52
17
19
16
4
7
2
4
7
2
4
7
2
4
7
2
4
7
2
4
7
2
4
7
2
4
7
2
4
7
2
4
7
2
4
7
2
4
7
2
4
7
2
4
7
2
4
7
2
4
7
2
4
7
2
4
7
2
4
7
2
4
7
2
4
7
2
4
7
2
4
7
2
4
7
2
4
7
2
4
7
2
4
7
2
8
11
7
25
27
24
65
66
64
61
63
60
5
2
7
5
2
7
37
39
36
8
11
7
25
27
24
237
239
235
251
254
250
251
254
250
227
180
166
210
86
83
223
147
138
200
60
40
216
126
116
234
181
162
197
39
34
197
39
34
242
220
203
216
114
111
219
138
124
251
254
250
249
251
248
251
254
250
255
250
248
251
254
250
201
70
56
211
108
99
235
206
191
197
39
34
198
66
41
200
60
40
197
39
34
227
180
166
251
254
250
251
254
250
251
254
250
231
233
229
4
7
2
5
2
7
5
2
7
8
11
7
29
31
28
5
2
7
5
2
7
5
2
7
5
2
7
5
2
7
65
66
64
57
58
56
21
22
20
4
7
2
4
7
2
4
7
2
4
7
2
4
7
2
4
7
2
4
7
2
4
7
2
4
7
2
4
7
2
4
7
2
4
7
2
4
7
2
4
7
2
4
7
2
4
7
2
4
7
2
4
7
2
4
7
2
4
7
2
4
7
2
4
7
2
4
7
2
4
7
2
4
7
2
4
7
2
4
7
2
8
11
7
37
39
36
77
79
76
4
7
2
5
2
7
5
2
7
45
46
44
12
15
11
41
43
40
244
246
242
251
254
250
251
254
250
227
180
166
207
81
74
223
155
141
199
50
37
216
120
113
234
181
162
197
39
34
197
39
34
242
220
203
216
120
113
197
39
34
213
129
103
221
155
126
221
155
126
218
144
117
237
201
182
237
201
182
208
97
94
235
206
191
197
39
34
198
66
41
198
66
41
197
39
34
227
180
166
251
254
250
251
254
250
251
254
250
231
233
229
8
11
7
5
2
7
5
2
7
21
22
20
12
15
11
5
2
7
5
2
7
5
2
7
5
2
7
5
2
7
65
66
64
61
63
60
21
22
20
4
7
2
4
7
2
4
7
2
4
7
2
4
7
2
4
7
2
4
7
2
4
7
2
4
7
2
4
7
2
4
7
2
4
7
2
4
7
2
4
7
2
4
7
2
4
7
2
4
7
2
4
7
2
4
7
2
4
7
2
4
7
2
4
7
2
4
7
2
4
7
2
4
7
2
4
7
2
4
7
2
17
19
16
49
51
48
73
74
72
5
2
7
5
2
7
12
15
11
69
71
68
33
35
32
61
63
60
249
251
248
251
254
250
251
254
250
236
214
198
203
72
64
228
166
154
199
50
37
216
120
113
234
181
162
197
39
34
197
39
34
242
220
203
216
114
111
213
129
103
218
144
117
194
21
30
194
21
30
194
21
30
216
120
113
235
206
191
215
105
101
237
201
182
194
21
30
197
39
34
200
60
46
197
39
34
235
206
191
251
254
250
251
254
250
251
254
250
231
233
229
12
15
11
5
2
7
5
2
7
29
31
28
5
2
7
5
2
7
5
2
7
5
2
7
5
2
7
5
2
7
65
66
64
61
63
60
21
22
20
4
7
2
4
7
2
4
7
2
4
7
2
4
7
2
4
7
2
4
7
2
4
7
2
4
7
2
4
7
2
4
7
2
4
7
2
4
7
2
4
7
2
4
7
2
4
7
2
4
7
2
4
7
2
4
7
2
4
7
2
4
7
2
4
7
2
4
7
2
4
7
2
4
7
2
4
7
2
4
7
2
17
19
16
53
55
52
61
63
60
5
2
7
5
2
7
5
2
7
29
31
28
45
46
44
69
71
68
249
251
248
251
254
250
251
254
250
244
246
242
197
39
34
233
188
175
197
39
34
215
105
101
237
201
182
197
39
34
197
39
34
236
214
198
216
120
113
207
94
85
251
254
250
251
254
250
251
254
250
251
254
250
251
254
250
219
138
124
199
51
43
251
254
250
249
255
255
249
255
255
249
255
255
197
58
50
247
233
230
251
254
250
251
254
250
251
254
250
222
224
221
8
11
7
5
2
7
4
7
2
29
31
28
5
2
7
5
2
7
5
2
7
5
2
7
5
2
7
5
2
7
65
66
64
57
58
56
21
22
20
4
7
2
4
7
2
4
7
2
4
7
2
4
7
2
4
7
2
4
7
2
4
7
2
4
7
2
4
7
2
4
7
2
4
7
2
4
7
2
4
7
2
4
7
2
4
7
2
4
7
2
4
7
2
4
7
2
4
7
2
4
7
2
4
7
2
4
7
2
4
7
2
4
7
2
4
7
2
4
7
2
21
22
20
57
58
56
61
63
60
5
2
7
5
2
7
5
2
7
5
2
7
29
31
28
77
79
76
249
251
248
251
254
250
251
254
250
251
254
250
201
70
56
199
50
37
198
66
41
200
60
40
199
51
43
198
66
41
198
66
41
199
45
48
200
60
46
200
60
40
199
45
48
199
45
48
199
45
48
199
45
48
199
45
48
199
50
37
200
60
40
197
26
38
199
30
45
197
26
38
197
26
38
197
58
50
251
254
250
251
254
250
251
254
250
251
254
250
207
209
206
5
2
7
21
22
20
33
35
32
20
12
3
21
22
20
25
27
24
17
19
16
4
7
2
5
2
7
5
2
7
81
83
80
53
55
52
17
19
16
4
7
2
4
7
2
4
7
2
4
7
2
4
7
2
4
7
2
4
7
2
4
7
2
4
7
2
4
7
2
4
7
2
4
7
2
4
7
2
4
7
2
4
7
2
4
7
2
4
7
2
4
7
2
4
7
2
4
7
2
4
7
2
4
7
2
4
7
2
4
7
2
4
7
2
4
7
2
4
7
2
25
27
24
61
63
60
105
107
104
72
49
11
185
134
13
212
161
5
121
92
8
4
7
2
61
63
60
237
239
235
251
254
250
251
254
250
251
254
250
219
154
146
199
50
37
200
60
40
200
60
40
198
66
41
198
66
41
198
66
41
198
66
41
198
66
41
198
66
41
198
66
41
198
66
41
198
66
41
198
66
41
200
60
40
200
60
40
200
60
40
200
60
40
200
60
40
199
50
37
197
39
34
219
154
146
251
254
250
251
254
250
251
254
250
251
254
250
156
158
155
17
19
16
12
15
11
5
2
7
5
2
7
5
2
7
4
7
2
17
19
16
65
66
64
37
39
36
4
7
2
93
95
92
49
51
48
17
19
16
4
7
2
4
7
2
4
7
2
4
7
2
4
7
2
4
7
2
4
7
2
4
7
2
4
7
2
4
7
2
4
7
2
4
7
2
4
7
2
4
7
2
4
7
2
4
7
2
4
7
2
4
7
2
4
7
2
4
7
2
4
7
2
4
7
2
4
7
2
4
7
2
8
11
7
8
11
7
17
19
16
37
39
36
77
79
76
144
134
104
215
158
4
242
186
0
247
190
3
247
190
3
154
116
7
8
11
7
89
91
88
237
239
235
251
254
250
251
254
250
251
254
250
197
39
34
198
66
41
200
60
40
200
60
40
200
60
40
200
60
40
200
60
40
200
60
40
200
60
40
200
60
40
200
60
40
200
60
40
200
60
40
200
60
40
200
60
40
200
60
40
199
50
37
199
50
37
199
50
37
184
36
33
251
254
250
251
254
250
245
231
192
238
205
92
238
205
92
181
142
41
36
27
10
5
2
7
5
2
7
5
2
7
5
2
7
5
2
7
5
2
7
37
39
36
45
46
44
25
27
24
105
107
104
53
55
52
17
19
16
4
7
2
4
7
2
4
7
2
4
7
2
4
7
2
4
7
2
4
7
2
4
7
2
4
7
2
4
7
2
4
7
2
4
7
2
4
7
2
4
7
2
4
7
2
4
7
2
4
7
2
4
7
2
4
7
2
4
7
2
4
7
2
4
7
2
12
15
11
21
22
20
29
31
28
37
39
36
49
51
48
69
71
68
105
107
104
189
145
37
227
168
5
242
186
0
247
190
3
247
190
3
247
190
3
154
116
7
4
7
2
73
74
72
222
224
221
251
254
250
251
254
250
227
180
166
194
21
30
199
50
37
200
60
40
200
60
40
200
60
40
200
60
40
200
60
40
200
60
40
200
60
40
200
60
40
200
60
40
200
60
40
200
60
40
199
50
37
199
50
37
197
39
34
197
39
34
187
26
27
206
169
158
251
254
250
251
254
250
225
180
62
240
196
6
241
208
0
232
195
0
36
27
10
5
2
7
5
2
7
5
2
7
5
2
7
5
2
7
4
7
2
29
31
28
25
27
24
204
165
4
153
142
88
65
66
64
25
27
24
4
7
2
4
7
2
4
7
2
4
7
2
4
7
2
4
7
2
4
7
2
4
7
2
4
7
2
4
7
2
4
7
2
4
7
2
4
7
2
4
7
2
4
7
2
4
7
2
4
7
2
4
7
2
4
7
2
4
7
2
4
7
2
17
19
16
37
39
36
57
58
56
77
79
76
85
86
84
100
101
99
124
126
123
176
145
57
211
150
14
238
177
2
248
185
0
247
190
3
247
190
3
247
190
3
240
190
0
102
77
9
5
2
7
45
46
44
195
197
194
251
254
250
251
254
250
193
119
110
187
26
27
197
39
34
199
50
37
199
50
37
199
50
37
199
50
37
199
50
37
199
50
37
199
50
37
199
50
37
199
50
37
197
39
34
197
39
34
191
43
32
184
36
33
173
22
26
179
112
99
251
254
250
251
254
250
251
254
250
225
180
62
242
186
0
240
196
6
211
166
12
19
18
9
5
2
7
5
2
7
5
2
7
5
2
7
5
2
7
5
2
7
4
7
2
121
92
8
239
201
14
232
195
0
81
83
80
33
35
32
8
11
7
4
7
2
4
7
2
4
7
2
4
7
2
4
7
2
4
7
2
4
7
2
4
7
2
4
7
2
4
7
2
4
7
2
4
7
2
4
7
2
4
7
2
4
7
2
4
7
2
4
7
2
4
7
2
4
7
2
12
15
11
37
39
36
69
71
68
156
120
39
189
145
37
199
145
0
196
138
8
196
138
8
215
153
0
227
168
5
242
186
0
247
190
3
247
190
3
247
190
3
247
190
3
247
190
3
223
176
13
50
34
5
5
2
7
21
22
20
156
158
155
249
251
248
251
254
250
179
112
99
173
22
26
184
36
33
184
36
33
191
43
32
191
43
32
191
43
32
191
43
32
191
43
32
191
39
37
184
36
33
184
36
33
172
33
27
172
33
27
162
19
19
179
112
99
251
254
250
251
254
250
249
251
248
244
246
242
225
180
62
238
183
11
236
187
15
215
153
0
50
34
5
5
2
7
5
2
7
5
2
7
5
2
7
5
2
7
5
2
7
61
43
8
223
176
13
240
190
0
236
187
15
112
99
78
41
43
40
12
15
11
4
7
2
4
7
2
4
7
2
4
7
2
4
7
2
4
7
2
4
7
2
4
7
2
4
7
2
4
7
2
4
7
2
4
7
2
4
7
2
4
7
2
4
7
2
4
7
2
4
7
2
4
7
2
4
7
2
21
22
20
53
55
52
156
120
39
215
153
0
227
168
5
228
174
0
227
168
5
227
168
5
238
177
2
242
186
0
247
190
3
247
190
3
247
190
3
247
190
3
247
190
3
247
190
3
240
196
6
185
144
6
8
11
7
5
2
7
4
7
2
115
117
114
244
246
242
251
254
250
206
169
158
143
13
7
172
33
27
172
33
27
172
33
27
172
33
27
172
33
27
172
33
27
172
33
27
172
33
27
172
33
27
162
19
19
143
13
7
206
169
158
251
254
250
251
254
250
251
254
250
231
233
229
195
197
194
214
168
57
238
177
2
238
177
2
211
150
14
138
89
3
20
12
3
5
2
7
5
2
7
5
2
7
4
7
2
72
49
11
199
145
0
238
177
2
238
183
11
238
183
11
125
112
90
57
58
56
21
22
20
4
7
2
4
7
2
4
7
2
4
7
2
4
7
2
4
7
2
4
7
2
4
7
2
4
7
2
4
7
2
4
7
2
4
7
2
4
7
2
4
7
2
4
7
2
4
7
2
4
7
2
4
7
2
8
11
7
29
31
28
69
71
68
181
132
34
227
168
5
238
183
11
242
186
0
242
186
0
248
185
0
247
190
3
247
190
3
247
190
3
247
190
3
247
190
3
247
190
3
247
190
3
247
190
3
247
190
3
232
195
0
100
69
3
5
2
7
5
2
7
5
2
7
65
66
64
222
224
221
251
254
250
249
251
248
185
132
121
144
33
25
143
13
7
155
24
16
155
24
16
162
19
19
155
24
16
143
13
7
144
33
25
185
132
121
244
246
242
251
254
250
251
254
250
251
254
250
251
254
250
207
209
206
195
197
194
214
168
57
228
174
0
228
174
0
215
158
4
192
134
0
162
110
7
115
82
8
102
77
9
115
82
8
170
116
2
196
138
8
227
168
5
238
183
11
242
186
0
242
186
0
163
146
93
77
79
76
33
35
32
12
15
11
4
7
2
4
7
2
4
7
2
4
7
2
4
7
2
4
7
2
4
7
2
4
7
2
4
7
2
4
7
2
4
7
2
4
7
2
4
7
2
4
7
2
4
7
2
4
7
2
4
7
2
4
7
2
29
31
28
77
79
76
189
145
37
227
168
5
238
183
11
247
190
3
247
190
3
247
190
3
247
190
3
247
190
3
247
190
3
247
190
3
247
190
3
247
190
3
247
190
3
247
190
3
247
190
3
240
196
6
204
165
4
19
18
9
5
2
7
5
2
7
5
2
7
37
39
36
215
217
214
251
254
250
251
254
250
251
254
250
237
229
222
214
189
180
195
155
145
195
155
145
214
189
180
237
229
222
251
254
250
251
254
250
251
254
250
251
254
250
251
254
250
251
254
250
249
251
248
207
209
206
195
197
194
202
162
68
227
168
5
238
177
2
227
168
5
211
150
14
199
145
0
196
138
8
192
134
0
196
138
8
211
150
14
227
168
5
242
186
0
247
190
3
247
190
3
248
185
0
223
176
13
125
112
90
61
63
60
29
31
28
12
15
11
4
7
2
4
7
2
4
7
2
4
7
2
4
7
2
4
7
2
4
7
2
4
7
2
4
7
2
4
7
2
4
7
2
4
7
2
4
7
2
4
7
2
4
7
2
4
7
2
8
11
7
29
31
28
77
79
76
176
134
50
227
168
5
238
183
11
247
190
3
247
190
3
247
190
3
247
190
3
247
190
3
247
190
3
247
190
3
247
190
3
247
190
3
247
190
3
247
190
3
247
190
3
247
190
3
240
196
6
139
101
13
5
2
7
5
2
7
5
2
7
5
2
7
77
79
76
249
251
248
251
254
250
251
254
250
251
254
250
251
254
250
251
254
250
251
254
250
251
254
250
251
254
250
251
254
250
251
254
250
251
254
250
251
254
250
251
254
250
251
254
250
249
251
248
215
217
214
195
197
194
189
145
37
219
162
15
238
177
2
238
177
2
227
168
5
215
158
4
215
153
0
215
153
0
215
158
4
227
168
5
238
183
11
247
190
3
247
190
3
247
190
3
247
190
3
242
186
0
206
163
36
100
101
99
57
58
56
29
31
28
12
15
11
4
7
2
4
7
2
4
7
2
4
7
2
4
7
2
4
7
2
4
7
2
4
7
2
4
7
2
4
7
2
4
7
2
4
7
2
4
7
2
4
7
2
4
7
2
8
11
7
29
31
28
73
74
72
176
134
50
215
158
4
238
177
2
247
190
3
247
190
3
247
190
3
247
190
3
247
190
3
247
190
3
247
190
3
247
190
3
247
190
3
247
190
3
247
190
3
247
190
3
247
190
3
240
196
6
229
186
0
61
43
8
5
2
7
5
2
7
5
2
7
21
22
20
237
239
235
251
254
250
251
254
250
251
254
250
251
254
250
251
254
250
251
254
250
251
254
250
251
254
250
251
254
250
251
254
250
251
254
250
251
254
250
251
254
250
251
254
250
251
254
250
222
224
221
187
190
186
181
132
34
215
158
4
238
177
2
238
183
11
238
177
2
228
174
0
227
168
5
227
168
5
228
174
0
238
177
2
242
186
0
247
190
3
247
190
3
247
190
3
247
190
3
248
185
0
238
183
11
206
163
36
105
107
104
65
66
64
33
35
32
12
15
11
4
7
2
4
7
2
4
7
2
4
7
2
4
7
2
4
7
2
4
7
2
4
7
2
4
7
2
4
7
2
4
7
2
4
7
2
4
7
2
4
7
2
4
7
2
25
27
24
69
71
68
164
132
66
215
153
0
238
177
2
247
190
3
247
190
3
247
190
3
247
190
3
247
190
3
247
190
3
247
190
3
247
190
3
247
190
3
247
190
3
247
190
3
247
190
3
247
190
3
247
190
3
240
196
6
185
144
6
20
12
3
5
2
7
5
2
7
45
46
44
244
246
242
251
254
250
251
254
250
251
254
250
251
254
250
251
254
250
251
254
250
251
254
250
251
254
250
251
254
250
251
254
250
251
254
250
251
254
250
251
254
250
251
254
250
251
254
250
222
224
221
85
86
84
158
106
1
215
158
4
238
177
2
242
186
0
248
185
0
242
186
0
238
183
11
238
183
11
242
186
0
242
186
0
248
185
0
247
190
3
247
190
3
247
190
3
247
190
3
247
190
3
247
190
3
242
186
0
223
176
13
144
122
72
65
66
64
29
31
28
8
11
7
4
7
2
4
7
2
4
7
2
4
7
2
4
7
2
4
7
2
4
7
2
4
7
2
4
7
2
4
7
2
4
7
2
4
7
2
4
7
2
4
7
2
25
27
24
69
71
68
164
132
66
211
150
14
238
177
2
247
190
3
247
190
3
247
190
3
247
190
3
247
190
3
247
190
3
247
190
3
247
190
3
247
190
3
247
190
3
247
190
3
247
190
3
247
190
3
247
190
3
247
190
3
232
195
0
121
92
8
33
35
32
105
107
104
222
224
221
251
254
250
251
254
250
251
254
250
251
254
250
251
254
250
251
254
250
251
254
250
251
254
250
251
254
250
251
254
250
251
254
250
251
254
250
251
254
250
251
254
250
251
254
250
244
246
242
81
83
80
20
12
3
162
110
7
215
158
4
238
177
2
242
186
0
247
190
3
247
190
3
247
190
3
247
190
3
247
190
3
247
190
3
247
190
3
247
190
3
247
190
3
247
190
3
247
190
3
247
190
3
247
190
3
247
190
3
247
190
3
242
186
0
164
132
66
45
46
44
17
19
16
4
7
2
4
7
2
4
7
2
4
7
2
4
7
2
4
7
2
4
7
2
4
7
2
4
7
2
4
7
2
4
7
2
4
7
2
4
7
2
8
11
7
29
31
28
77
79
76
164
132
66
211
150
14
238
177
2
248
185
0
247
190
3
247
190
3
247
190
3
247
190
3
247
190
3
247
190
3
247
190
3
247
190
3
247
190
3
247
190
3
247
190
3
247
190
3
247
190
3
247
190
3
240
196
6
214
174
0
191
178
141
251
254
250
251
254
250
251
254
250
251
254
250
251
254
250
251
254
250
251
254
250
251
254
250
251
254
250
251
254
250
251
254
250
251
254
250
251
254
250
251
254
250
251
254
250
251
254
250
215
217
214
57
58
56
5
2
7
19
18
9
170
116
2
215
158
4
238
177
2
248
185
0
247
190
3
247
190
3
247
190
3
247
190
3
247
190
3
247
190
3
247
190
3
247
190
3
247
190
3
247
190
3
247
190
3
247
190
3
247
190
3
247
190
3
248
185
0
242
186
0
189
145
37
53
55
52
21
22
20
4
7
2
4
7
2
4
7
2
4
7
2
4
7
2
4
7
2
4
7
2
4
7
2
4
7
2
4
7
2
4
7
2
4
7
2
4
7
2
12
15
11
37
39
36
85
86
84
181
132
34
215
153
0
238
177
2
248
185
0
247
190
3
247
190
3
247
190
3
247
190
3
247
190
3
247
190
3
247
190
3
247
190
3
247
190
3
247
190
3
247
190
3
247
190
3
247
190
3
247
190
3
247
190
3
232
195
0
185
144
6
215
217
214
251
254
250
251
254
250
251
254
250
251
254
250
251
254
250
251
254
250
251
254
250
251
254
250
251
254
250
251
254
250
251
254
250
251
254
250
251
254
250
249
251
248
170
172
169
25
27
24
5
2
7
5
2
7
36
27
10
162
110
7
219
162
15
238
183
11
248
185
0
247
190
3
247
190
3
247
190
3
247
190
3
247
190
3
247
190
3
247
190
3
247
190
3
247
190
3
247
190
3
247
190
3
247
190
3
247
190
3
248
185
0
238
177
2
227
168
5
144
122
72
45
46
44
17
19
16
4
7
2
4
7
2
4
7
2
4
7
2
4
7
2
4
7
2
4
7
2
4
7
2
4
7
2
4
7
2
4
7
2
4
7
2
4
7
2
17
19
16
49
51
48
109
106
93
192
134
0
227
168
5
242
186
0
247
190
3
247
190
3
247
190
3
247
190
3
247
190
3
247
190
3
247
190
3
247
190
3
247
190
3
247
190
3
247
190
3
247
190
3
247
190
3
247
190
3
247
190
3
242
186
0
229
186
0
212
161
5
140
110
47
222
224
221
251
254
250
251
254
250
251
254
250
251
254
250
251
254
250
251
254
250
251
254
250
251
254
250
251
254
250
251
254
250
251
254
250
195
197
194
65
66
64
5
2
7
5
2
7
5
2
7
5
2
7
50
34
5
158
106
1
219
162
15
238
183
11
248
185
0
247
190
3
247
190
3
247
190
3
247
190
3
247
190
3
247
190
3
247
190
3
247
190
3
247
190
3
247
190
3
247
190
3
247
190
3
242
186
0
238
177
2
215
153
0
156
120
39
65
66
64
29
31
28
8
11
7
4
7
2
4
7
2
4
7
2
4
7
2
4
7
2
4
7
2
4
7
2
4
7
2
4
7
2
4
7
2
4
7
2
4
7
2
4
7
2
21
22
20
57
58
56
153
122
56
205
145
2
238
177
2
242
186
0
248
185
0
247
190
3
247
190
3
247
190
3
247
190
3
247
190
3
247
190
3
247
190
3
247
190
3
247
190
3
247
190
3
247
190
3
247
190
3
247
190
3
247
190
3
248
185
0
238
177
2
212
161
5
162
110
7
61
43
8
136
138
135
215
217
214
249
251
248
251
254
250
251
254
250
251
254
250
249
251
248
244
246
242
207
209
206
144
146
143
65
66
64
4
7
2
5
2
7
5
2
7
5
2
7
5
2
7
5
2
7
61
43
8
162
110
7
215
158
4
238
177
2
247
190
3
247
190
3
247
190
3
247
190
3
247
190
3
247
190
3
247
190
3
247
190
3
247
190
3
247
190
3
247
190
3
238
183
11
228
174
0
215
158
4
189
145
37
125
112
90
69
71
68
37
39
36
17
19
16
4
7
2
4
7
2
4
7
2
4
7
2
4
7
2
4
7
2
4
7
2
4
7
2
4
7
2
4
7
2
4
7
2
4
7
2
4
7
2
4
7
2
21
22
20
61
63
60
170
123
41
205
145
2
227
168
5
238
177
2
238
183
11
242
186
0
242
186
0
248
185
0
247
190
3
247
190
3
247
190
3
247
190
3
247
190
3
247
190
3
247
190
3
247
190
3
247
190
3
247
190
3
247
190
3
247
190
3
238
177
2
215
158
4
170
116
2
81
53
2
5
2
7
4
7
2
29
31
28
53
55
52
61
63
60
49
51
48
37
39
36
12
15
11
5
2
7
5
2
7
5
2
7
5
2
7
5
2
7
5
2
7
5
2
7
5
2
7
4
7
2
81
53
2
170
116
2
215
153
0
238
177
2
247
190
3
247
190
3
247
190
3
247
190
3
247
190
3
247
190
3
247
190
3
242
186
0
238
183
11
238
183
11
228
174
0
211
150
14
176
134
50
125
112
90
81
83
80
53
55
52
33
35
32
17
19
16
4
7
2
4
7
2
4
7
2
4
7
2
4
7
2
4
7
2
4
7
2
4
7
2
4
7
2
4
7
2
4
7
2
4
7
2
4
7
2
4
7
2
4
7
2
17
19
16
49
51
48
156
120
39
192
134
0
199
145
0
215
158
4
219
162
15
227
168
5
227
168
5
228
174
0
238
177
2
238
183
11
238
183
11
242
186
0
248
185
0
247
190
3
247
190
3
247
190
3
247
190
3
247
190
3
247
190
3
248
185
0
228
174
0
211
150
14
162
110
7
104
68
4
8
11
7
5
2
7
5
2
7
5
2
7
5
2
7
5
2
7
5
2
7
5
2
7
5
2
7
5
2
7
5
2
7
5
2
7
5
2
7
5
2
7
5
2
7
5
2
7
4
7
2
89
60
2
170
116
2
205
145
2
228
174
0
242
186
0
247
190
3
247
190
3
247
190
3
248
185
0
242
186
0
238
183
11
228
174
0
227
168
5
215
153
0
181
132
34
125
112
90
85
86
84
57
58
56
37
39
36
21
22
20
8
11
7
4
7
2
4
7
2
4
7
2
4
7
2
4
7
2
4
7
2
4
7
2
4
7
2
4
7
2
4
7
2
4
7
2
4
7
2
4
7
2
4
7
2
4
7
2
4
7
2
12
15
11
33
35
32
69
71
68
140
110
47
156
120
39
170
116
2
179
124
0
192
134
0
196
138
8
199
145
0
205
145
2
215
153
0
219
162
15
227
168
5
228
174
0
238
183
11
242
186
0
248
185
0
248
185
0
248
185
0
248
185
0
238
183
11
215
158
4
185
134
13
153
98
6
104
68
4
20
12
3
5
2
7
5
2
7
5
2
7
5
2
7
5
2
7
5
2
7
5
2
7
5
2
7
5
2
7
5
2
7
5
2
7
5
2
7
5
2
7
5
2
7
5
2
7
4
7
2
81
53
2
153
98
6
192
134
0
219
162
15
238
177
2
238
183
11
248
185
0
242
186
0
238
183
11
238
177
2
227
168
5
205
145
2
192
134
0
153
122
56
93
95
92
61
63
60
41
43
40
21
22
20
12
15
11
4
7
2
4
7
2
4
7
2
4
7
2
4
7
2
4
7
2
4
7
2
4
7
2
4
7
2
4
7
2
4
7
2
4
7
2
4
7
2
4
7
2
4
7
2
4
7
2
4
7
2
4
7
2
4
7
2
17
19
16
33
35
32
57
58
56
77
79
76
99
98
91
125
112
90
140
110
47
158
106
1
162
110
7
170
116
2
170
116
2
179
124
0
185
134
13
196
138
8
211
150
14
219
162
15
227
168
5
238
177
2
238
177
2
238
177
2
219
162
15
196
138
8
162
110
7
130
84
6
89
60
2
8
11
7
5
2
7
5
2
7
17
19
16
37
39
36
37
39
36
37
39
36
37
39
36
37
39
36
37
39
36
37
39
36
37
39
36
37
39
36
25
27
24
5
2
7
5
2
7
4
7
2
72
49
11
138
89
3
170
116
2
199
145
0
219
162
15
228
174
0
238
177
2
228
174
0
219
162
15
211
150
14
192
134
0
162
110
7
125
112
90
81
83
80
49
51
48
29
31
28
12
15
11
4
7
2
4
7
2
4
7
2
4
7
2
4
7
2
4
7
2
4
7
2
4
7
2
4
7
2
4
7
2
4
7
2
4
7
2
4
7
2
4
7
2
4
7
2
4
7
2
4
7
2
4
7
2
4
7
2
4
7
2
4
7
2
4
7
2
12
15
11
21
22
20
33
35
32
41
43
40
57
58
56
73
74
72
85
86
84
99
98
91
124
101
71
131
98
47
121
87
24
138
89
3
153
98
6
162
110
7
179
124
0
185
134
13
196
138
8
205
145
2
199
145
0
179
124
0
158
106
1
130
84
6
104
68
4
50
34
5
53
55
52
105
107
104
99
98
91
85
86
84
81
83
80
77
79
76
77
79
76
77
79
76
77
79
76
77
79
76
77
79
76
77
79
76
81
83
80
85
86
84
93
95
92
105
107
104
100
101
99
89
67
32
125
80
2
158
106
1
179
124
0
192
134
0
199
145
0
205
145
2
199
145
0
192
134
0
170
116
2
139
101
13
109
106
93
69
71
68
41
43
40
21
22
20
8
11
7
4
7
2
4
7
2
4
7
2
4
7
2
4
7
2
4
7
2
4
7
2
4
7
2
4
7
2
4
7
2
4
7
2
4
7
2
4
7
2
4
7
2
4
7
2
4
7
2
4
7
2
4
7
2
4
7
2
4
7
2
4
7
2
4
7
2
4
7
2
4
7
2
4
7
2
8
11
7
12
15
11
21
22
20
29
31
28
37
39
36
49
51
48
61
63
60
73
74
72
89
91
88
99
98
91
112
99
78
121
87
24
125
80
2
138
89
3
153
98
6
153
98
6
153
98
6
138
89
3
125
80
2
100
69
3
89
67
32
99
98
91
81
83
80
57
58
56
45
46
44
37
39
36
33
35
32
33
35
32
33
35
32
33
35
32
33
35
32
33
35
32
33
35
32
33
35
32
33
35
32
37
39
36
41
43
40
53
55
52
81
83
80
94
85
74
89
60
2
138
89
3
158
106
1
170
116
2
170
116
2
170
116
2
170
116
2
153
98
6
121
87
24
99
98
91
61
63
60
33
35
32
17
19
16
4
7
2
4
7
2
4
7
2
4
7
2
4
7
2
4
7
2
4
7
2
4
7
2
4
7
2
4
7
2
4
7
2
4
7
2
4
7
2
4
7
2
4
7
2
4
7
2
4
7
2
4
7
2
4
7
2
4
7
2
4
7
2
4
7
2
4
7
2
4
7
2
4
7
2
4
7
2
4
7
2
4
7
2
4
7
2
4
7
2
4
7
2
8
11
7
17
19
16
21
22
20
29
31
28
41
43
40
49
51
48
65
66
64
85
86
84
99
98
91
108
86
56
100
69
3
104
68
4
104
68
4
104
68
4
89
60
2
82
62
34
89
91
88
61
63
60
37
39
36
21
22
20
12
15
11
8
11
7
8
11
7
8
11
7
8
11
7
8
11
7
8
11
7
4
7
2
8
11
7
8
11
7
8
11
7
8
11
7
12
15
11
21
22
20
41
43
40
69
71
68
91
81
65
81
53
2
104
68
4
125
80
2
138
89
3
138
89
3
115
82
8
98
83
52
85
86
84
57
58
56
29
31
28
12
15
11
4
7
2
4
7
2
4
7
2
4
7
2
4
7
2
4
7
2
4
7
2
4
7
2
4
7
2
4
7
2
4
7
2
4
7
2
4
7
2
4
7
2
4
7
2
4
7
2
4
7
2
4
7
2
4
7
2
4
7
2
4
7
2
4
7
2
4
7
2
4
7
2
4
7
2
4
7
2
4
7
2
4
7
2
4
7
2
4
7
2
4
7
2
4
7
2
4
7
2
4
7
2
4
7
2
8
11
7
12
15
11
17
19
16
25
27
24
37
39
36
53
55
52
69
71
68
85
86
84
94
85
74
91
81
65
91
81
65
85
86
84
73
74
72
49
51
48
29
31
28
12
15
11
4
7
2
4
7
2
4
7
2
4
7
2
4
7
2
4
7
2
4
7
2
4
7
2
4
7
2
4
7
2
4
7
2
4
7
2
4
7
2
4
7
2
4
7
2
17
19
16
33
35
32
57
58
56
81
83
80
91
81
65
91
81
65
91
81
65
93
87
64
94
85
74
73
74
72
49
51
48
25
27
24
12
15
11
4
7
2
4
7
2
4
7
2
4
7
2
4
7
2
4
7
2
4
7
2
4
7
2
4
7
2
4
7
2
4
7
2
4
7
2
4
7
2
4
7
2
4
7
2
4
7
2
4
7
2
4
7
2
4
7
2
4
7
2
4
7
2
4
7
2
4
7
2
4
7
2
4
7
2
4
7
2
4
7
2
4
7
2
4
7
2
4
7
2
4
7
2
4
7
2
4
7
2
4
7
2
4
7
2
4
7
2
4
7
2
4
7
2
4
7
2
4
7
2
12
15
11
17
19
16
29
31
28
37
39
36
45
46
44
53
55
52
49
51
48
41
43
40
29
31
28
17
19
16
8
11
7
4
7
2
4
7
2
4
7
2
4
7
2
4
7
2
4
7
2
4
7
2
4
7
2
4
7
2
4
7
2
4
7
2
4
7
2
4
7
2
4
7
2
4
7
2
4
7
2
4
7
2
12
15
11
25
27
24
37
39
36
49
51
48
57
58
56
57
58
56
53
55
52
41
43
40
29
31
28
17
19
16
8
11
7
4
7
2
4
7
2
4
7
2
4
7
2
4
7
2
4
7
2
4
7
2
4
7
2
4
7
2
4
7
2
4
7
2
4
7
2
4
7
2
4
7
2
4
7
2
4
7
2
4
7
2
4
7
2
4
7
2
4
7
2
4
7
2
4
7
2
4
7
2
4
7
2
4
7
2
4
7
2
4
7
2
4
7
2
4
7
2
4
7
2
4
7
2
4
7
2
4
7
2
4
7
2
4
7
2
4
7
2
4
7
2
4
7
2
4
7
2
4
7
2
4
7
2
4
7
2
4
7
2
4
7
2
8
11
7
12
15
11
17
19
16
17
19
16
12
15
11
8
11
7
4
7
2
4
7
2
4
7
2
4
7
2
4
7
2
4
7
2
4
7
2
4
7
2
4
7
2
4
7
2
4
7
2
4
7
2
4
7
2
4
7
2
4
7
2
4
7
2
4
7
2
4
7
2
4
7
2
4
7
2
4
7
2
12
15
11
17
19
16
21
22
20
21
22
20
17
19
16
12
15
11
8
11
7
4
7
2
4
7
2
4
7
2
4
7
2
4
7
2
4
7
2
4
7
2
4
7
2
4
7
2
4
7
2
4
7
2
4
7
2
4
7
2
4
7
2
4
7
2
4
7
2
4
7
2
4
7
2
4
7
2
4
7
2
4
7
2
